PathFileType	4	(X/Y/Z)	Walk1.trc
DataRate	CameraRate	NumFrames	NumMarkers	Units	OrigDataRate	OrigDataStartFrame	OrigNumFrames
200.000000	200.000000	9	59	mm	200.000000	201	485
Frame#	Times		LFHD		RFHD		LBHD		RBHD		C7		T10		CLAV		STRN		RBack		LASI		RASI		LPSI		RPSI		RACR1		RUA1		RElbow		RElbowM		RFA1		RWRR		RWRU		RCAR		LACR1		LUA1		LElbow		LElbowM		LFA1		LWRR		LCAR		RTH1		RTH3		RTH2		RTH4		RLFC		RTB1		RTB3		RTB2		RTB4		RLMAL		RMT1		RMT5		LTH1		LTH3		LTH2		LTH4		LLFC		LTB1		LTB3		LTB2		LTB4		LLMAL		LMMAL		LMT1		LMT5		LToe		RMMAL		LWRU		RToe		LCAL		RCAL
			X1	Y1	Z1	X2	Y2	Z2	X3	Y3	Z3	X4	Y4	Z4	X5	Y5	Z5	X6	Y6	Z6	X7	Y7	Z7	X8	Y8	Z8	X9	Y9	Z9	X10	Y10	Z10	X11	Y11	Z11	X12	Y12	Z12	X13	Y13	Z13	X14	Y14	Z14	X15	Y15	Z15	X16	Y16	Z16	X17	Y17	Z17	X18	Y18	Z18	X19	Y19	Z19	X20	Y20	Z20	X21	Y21	Z21	X22	Y22	Z22	X23	Y23	Z23	X24	Y24	Z24	X25	Y25	Z25	X26	Y26	Z26	X27	Y27	Z27	X28	Y28	Z28	X29	Y29	Z29	X30	Y30	Z30	X31	Y31	Z31	X32	Y32	Z32	X33	Y33	Z33	X34	Y34	Z34	X35	Y35	Z35	X36	Y36	Z36	X37	Y37	Z37	X38	Y38	Z38	X39	Y39	Z39	X40	Y40	Z40	X41	Y41	Z41	X42	Y42	Z42	X43	Y43	Z43	X44	Y44	Z44	X45	Y45	Z45	X46	Y46	Z46	X47	Y47	Z47	X48	Y48	Z48	X49	Y49	Z49	X50	Y50	Z50	X51	Y51	Z51	X52	Y52	Z52	X53	Y53	Z53	X54	Y54	Z54	X55	Y55	Z55	X56	Y56	Z56	X57	Y57	Z57	X58	Y58	Z58	X59	Y59	Z59

201	1.005	-302.77	1593.1	-87.828	-285.37	1599.9	5.1433	-446.72	1520.1	-86.005	-427.23	1536.8	52.588	-464.03	1407.8	-17.072	-530.31	1140.7	-23.97	-324.13	1334	-25.1	-261.71	1232.2	-23.93	-513.01	1313	89.281	-256.22	965.53	-154.01	-282.84	960.94	134.14	-515.04	955.64	-71.541	-521.25	953.77	18.091	-387.86	1368.4	130.4	-387.51	1187.2	225.35	-430.87	1064	254.67	-420.68	1032.8	168.65	-410.19	918.5	273.02	-322.83	828.34	235.13	-374.49	814.29	281.48	-306.08	777.91	285.44	-388.03	1364	-181.23	-417.41	1182.3	-270.77	-473	1062.8	-292.12	-499.41	1040.8	-215.39	-483.86	926.31	-308.93	-416.48	810.12	-274.37	-421.02	759.78	-314.57	-355.55	721.82	194.55	-362.96	552.54	165.23	-305.08	639.31	157.16	-359.93	635.52	177.14	-376.3	466.26	150.42	-441.31	313.48	90.345	-590.39	225.9	83.384	-529.93	291.83	141.31	-517.42	269	84.451	-708.85	191.9	107.44	-693.02	78.075	29.468	-721.1	83.463	92.333	-331.08	753.55	-233.62	-301.46	594.9	-174.86	-261.51	692.22	-189.73	-317.4	676.17	-200.28	-276.42	476.83	-136.22	-228.66	337.67	-50.503	-249.14	166.57	-49.54	-255.94	251.64	-108.14	-239.96	251.57	-48.643	-295.86	58.985	-75.102	-282.14	63.466	9.3413	-180.31	29.749	-7.9403	-210.58	23.874	-87.567	-110.88	24.532	-35.364	-689.75	188.03	26.595	-475.21	810.09	-317.26	-667.16	34.542	58.894	-358.94	30.667	-39.589	-761.55	234.11	68.482
202	1.01	-297.1	1593.8	-88.501	-279.52	1600.9	4.8125	-441.15	1520.7	-86.463	-421.14	1537.5	52.227	-458.2	1408.6	-17.133	-524.8	1141.5	-24.503	-318.07	1334.9	-25.265	-256.42	1232.9	-23.812	-507.34	1313.6	88.773	-250.51	965.86	-153.77	-277.75	961.56	134.12	-509.35	956.45	-72.416	-515.56	954.31	17.284	-382.22	1369	130.4	-382.4	1187.6	225.17	-425.77	1064.9	254.75	-425.49	1033.5	165.22	-406.51	918.8	272.43	-321.04	827.98	234.01	-372.09	814.54	280.68	-303.81	777.31	284.02	-382.1	1364.7	-181.35	-410.02	1183.2	-271.1	-465	1063.5	-293.05	-492.04	1041	-216.59	-474.2	926.73	-309.55	-405.35	811.4	-274.29	-409.07	760.95	-314.57	-347.79	723.15	194.23	-352.92	553.6	165.45	-296.26	641.37	157.56	-351.66	636.59	177.77	-365.24	467.18	151.11	-428.52	314.53	91.27	-578.32	227.26	83.571	-517.7	293.61	141.95	-503.55	271.02	86.184	-696.77	194.29	107.97	-679.64	79.99	31.487	-708.4	86.677	94.896	-326.1	754.07	-233.91	-297.61	595.26	-175.3	-257.19	692.14	-189.27	-312.74	677.05	-200.82	-274.02	476.94	-136.82	-227.44	337.48	-50.766	-248.73	166.56	-49.795	-255.25	251.59	-108.34	-239.21	251.48	-48.947	-295.82	59	-75.186	-282.09	63.564	9.1787	-180.34	29.76	-7.9688	-210.61	23.845	-87.627	-110.91	24.503	-35.334	-677.81	190.45	26.837	-463.94	810.25	-317.48	-653.85	36.446	61.728	-359	30.644	-39.662	-749.99	236.09	69.012
203	1.015	-291.19	1594.5	-88.888	-273.65	1601.6	4.3135	-435.06	1521.2	-86.829	-415.08	1538.2	51.95	-451.48	1409.4	-16.836	-519.23	1142.5	-24.951	-312.41	1335.7	-25.292	-250.41	1233.8	-24.192	-501.7	1314.2	88.41	-244.86	966.13	-153.53	-272.25	962.03	134.14	-503.69	957.27	-73.138	-509.69	954.96	16.718	-376.7	1369.6	130.32	-377.32	1188.1	224.94	-421	1065.7	254.67	-432.25	1034.8	160.78	-402.75	919.24	271.69	-318.68	827.73	233.21	-369.5	814.97	280.18	-301.63	776.67	282.84	-375.83	1365.4	-181.39	-402.78	1183.8	-271.54	-457.07	1063.9	-293.91	-484.35	1041.2	-217.71	-464.33	926.78	-310.26	-393.93	812.65	-274.31	-396.88	762.12	-314.59	-340.39	724.46	193.92	-342.92	554.74	165.91	-287.93	642.98	158.46	-342.9	637.62	178.19	-354.06	468.19	151.6	-415.93	315.54	92.287	-566.18	228.53	84.127	-505.61	295.7	142.47	-490.43	272.27	87.323	-684.55	196.45	109.04	-665.83	81.413	33.525	-695.62	89.574	97.111	-321.23	754.48	-233.69	-293.64	595.5	-175.62	-252.65	692.68	-189.58	-309.53	676.75	-200.1	-271.78	477	-137.27	-226.11	337.45	-51.501	-248.3	166.51	-50.132	-254.79	251.21	-108.48	-238.22	251.38	-49.428	-295.81	59.022	-75.239	-282.07	63.699	9.0383	-180.4	29.806	-8.0167	-210.67	23.814	-87.716	-111.02	24.625	-35.335	-665.63	192.09	27.622	-452.39	810.47	-317.3	-640.04	38.261	64.594	-359.05	30.658	-39.745	-738.2	237.71	69.236
204	1.02	-285.57	1595.2	-89.216	-267.79	1602.4	3.6534	-429.05	1521.7	-87.016	-409.22	1539	51.593	-446.01	1410	-17.307	-513.46	1143.1	-25.467	-306.68	1336.1	-25.439	-244.63	1234.5	-24.458	-496.02	1314.8	88.045	-239.02	966.28	-153.19	-266.98	962.68	134.25	-497.91	958.13	-74.049	-504.27	955.82	15.911	-370.95	1370.3	130.33	-372.36	1188.5	224.87	-416.05	1066.2	254.35	-428.26	1035.6	160.44	-398.94	919.84	271.27	-315.6	827.24	232.6	-366.51	815.48	279.92	-299.15	776.09	281.56	-369.98	1366.2	-181.59	-395.52	1184.5	-271.79	-449.09	1064.2	-294.72	-477.08	1041.4	-218.96	-454.45	927.03	-310.87	-382.77	813.89	-274.31	-384.27	763.49	-314.54	-333.53	725.56	193.75	-333.48	555.77	166.4	-279.54	644.57	159.37	-334.23	638.85	178.63	-342.93	469.41	151.98	-403.21	316.85	93.514	-553.29	230.29	85.098	-493.16	297.6	143.25	-479.01	273.04	87.898	-671.9	198.07	109.51	-652.3	82.626	35.123	-682.41	91.634	99.214	-316.28	754.91	-233.86	-289.88	595.68	-176.04	-248.21	692.42	-189.22	-304.99	677.74	-200.85	-269.61	477.1	-137.71	-224.91	337.1	-52.294	-247.87	166.4	-50.49	-254.12	251.1	-109.18	-237.46	251.22	-50.01	-295.78	59.039	-75.334	-282.03	63.78	8.8867	-180.43	29.83	-8.0659	-210.7	23.776	-87.812	-111.08	24.606	-35.267	-652.88	193.38	28.303	-441.07	810.55	-317.65	-626.04	39.887	67.503	-359.11	30.707	-39.813	-726.09	238.85	69.276
205	1.025	-279.77	1595.8	-89.705	-261.83	1603.4	3.3628	-423.27	1522.2	-87.186	-403.32	1539.7	51.151	-440.36	1410.9	-17.603	-507.66	1144	-25.857	-300.73	1336.8	-25.622	-239.05	1235	-24.397	-490.48	1315.2	87.581	-232.95	966.36	-152.71	-261.6	963.19	134.55	-492.29	959.26	-74.947	-498.68	956.61	15.105	-365.09	1370.8	130.46	-367.5	1188.9	224.85	-411.58	1066.9	254.02	-424.07	1036.3	159.87	-395.18	920.43	270.84	-312.28	826.66	231.56	-363.74	815.78	279.56	-296.77	775.55	280.21	-363.96	1366.9	-181.56	-388.29	1185.1	-272.07	-440.74	1064.7	-295.59	-469.66	1041.6	-220.27	-444.69	927.2	-311.6	-371.7	815.22	-274.14	-371.86	764.81	-314.33	-326.87	726.66	193.7	-324.06	556.78	166.93	-270.87	646.44	160.16	-325.54	640.21	178.91	-331.89	470.6	152.52	-390.09	318.27	94.759	-540.38	232	86.61	-480.97	299.17	143.42	-466.44	274.21	88.443	-659.36	199.62	110.2	-638.19	83.521	36.619	-668.8	93.406	101.26	-311.53	755.44	-234.14	-286.21	595.96	-176.35	-244.05	692.29	-188.75	-299.44	678.86	-201.87	-267.37	477.05	-138.04	-223.8	336.88	-52.954	-247.55	166.24	-50.835	-253.53	250.96	-109.68	-236.56	251.02	-50.559	-295.78	59.065	-75.419	-282.01	63.827	8.7835	-180.49	29.834	-8.1441	-210.88	23.822	-88.199	-111.17	24.597	-35.244	-639.87	194.22	28.9	-429.67	811.02	-317.79	-611.99	41.896	70.878	-359.17	30.761	-39.873	-713.82	239.65	69.19
206	1.03	-273.96	1596.5	-90.097	-256.23	1604.1	2.9212	-417.44	1522.6	-87.301	-397.31	1540.3	50.741	-434.39	1411.6	-17.732	-502.02	1144.6	-26.325	-295	1337.6	-25.812	-233.31	1235.5	-24.391	-484.99	1315.8	87.236	-227.31	966.25	-152.27	-256.64	963.8	134.84	-486.54	960.06	-75.574	-493.28	957.61	14.423	-359.58	1371.3	130.51	-362.79	1189.3	224.74	-406.87	1067.6	253.56	-419.94	1036.8	159.6	-391.5	921	270.41	-309.74	826.37	230.15	-360.62	815.85	279.16	-294.5	774.96	279.19	-358.09	1367.5	-181.51	-381.14	1185.9	-272.32	-432.42	1065.2	-296.56	-462.23	1041.8	-221.73	-435	927.57	-312.42	-360.23	816.6	-274.04	-359.44	766.32	-314.2	-319.8	728	193.46	-314.38	557.85	167.47	-262.58	648.23	161.15	-317.32	641.77	179.24	-320.69	472.05	152.88	-377.19	319.79	95.906	-527.58	233.35	87.917	-468.83	300.92	144.07	-452.95	275.55	89.344	-646.59	200.68	110.85	-623.52	84.47	37.822	-654.37	94.801	103.24	-306.81	755.83	-234.71	-282.21	596.27	-176.98	-239.7	692.38	-188.68	-295.27	678.9	-202.2	-265.24	477.01	-138.44	-222.4	336.61	-53.571	-247.32	166.05	-51.212	-253.05	250.77	-110.11	-235.81	250.87	-51.052	-295.78	59.053	-75.461	-281.95	63.896	8.6657	-180.52	29.89	-8.1761	-210.73	24.003	-88.167	-111.3	24.687	-35.23	-626.64	194.93	29.273	-418.23	811.46	-318.07	-597.44	43.009	73.592	-359.21	30.724	-39.885	-701.5	240.16	69.079
207	1.035	-268.21	1597.2	-90.503	-250.53	1604.9	2.4179	-411.67	1523	-87.526	-391.31	1541	50.534	-428.53	1412.2	-17.717	-496.28	1145.4	-26.78	-289.52	1338.2	-25.86	-227.86	1236	-24.487	-479.17	1316.4	86.846	-221.52	966.11	-152	-251.33	964.28	135.15	-480.9	960.92	-76.013	-487.69	958.35	13.675	-354.11	1371.9	130.55	-358.06	1189.7	224.73	-402.18	1068	253.23	-415.88	1037.4	159.56	-387.84	921.25	270.04	-307.87	826.44	229.16	-357.61	815.91	278.67	-292.15	774.46	278.02	-352.32	1368.2	-181.71	-374.03	1186.6	-272.86	-424.22	1065.6	-297.51	-454.66	1041.9	-223.11	-425.01	927.7	-313.09	-349.06	817.96	-273.95	-347.06	767.81	-314.28	-312.98	729.08	193.45	-305.07	558.96	168.04	-254.42	649.96	162.28	-309.39	642.76	179.46	-309.74	473.19	153.53	-364.34	321.06	96.674	-514.12	234.46	89.127	-455.64	302.57	144.8	-439.64	277.21	90.163	-633.73	201.7	111.08	-608.9	84.931	40.122	-639.77	95.773	104.98	-301.66	756.32	-235.51	-278.93	596.62	-176.96	-235.91	692.91	-189.24	-291.53	678.28	-201.99	-263.52	476.97	-138.64	-221.23	336.29	-54.194	-247.05	165.94	-51.544	-252.63	250.68	-110.43	-235.11	250.78	-51.573	-295.83	59.069	-75.542	-281.89	63.946	8.5546	-180.54	29.951	-8.2184	-210.73	23.708	-88.025	-111.4	24.769	-35.18	-613.08	195.48	29.701	-406.71	811.54	-318.21	-582.18	43.986	75.804	-359.38	30.813	-40.157	-689.06	239.96	69.233
208	1.04	-262.39	1597.8	-90.757	-244.36	1605.6	2.1543	-405.72	1523.4	-87.847	-385.41	1541.5	50.396	-422.46	1412.9	-17.704	-490.66	1146.2	-27.126	-283.69	1338.6	-25.898	-222.21	1236.4	-24.529	-473.57	1316.9	86.456	-215.67	966.05	-151.6	-246.38	964.86	135.55	-475.65	961.91	-76.5	-482.21	959.39	13.184	-348.49	1372.3	130.53	-353.31	1190	224.76	-397.55	1068.4	252.84	-411.82	1038	159	-384.14	921.67	269.88	-306.73	826.34	228.51	-354.94	816.23	278.31	-289.75	773.95	276.92	-346.29	1369.1	-181.75	-366.96	1187.3	-273.22	-415.96	1065.9	-298.39	-447.26	1042.1	-224.43	-414.68	927.99	-313.75	-337.83	819.33	-273.74	-334.68	769.29	-314.15	-306.9	730.05	193.56	-295.82	560.18	168.2	-246.1	651.84	163.47	-301.05	643.75	180.18	-298.98	474.36	154.13	-351.62	322.45	97.193	-500.73	235.7	90.025	-442.78	304.26	145.4	-425.55	278.45	91.315	-620.57	202.75	111.14	-593.92	85.3	42.119	-624.76	96.641	106.5	-297.15	756.78	-235.85	-275.95	596.73	-177.1	-231.68	692.57	-189.15	-287.75	679.03	-202.32	-261.57	477.02	-138.9	-220.18	336.06	-54.744	-246.71	165.79	-51.798	-252.25	250.5	-110.58	-234.32	250.61	-51.981	-295.84	59.078	-75.61	-281.82	64.022	8.4916	-180.6	29.976	-8.2851	-210.79	23.596	-88.035	-111.52	24.857	-35.156	-599.48	195.68	30.208	-394.93	812.05	-318.16	-566.52	45.148	78.109	-359.46	30.841	-40.322	-676.42	239.43	69.214
209	1.045	-256.55	1598.4	-91.398	-238.7	1606.2	1.8116	-399.81	1523.9	-88.101	-379.65	1542.1	50.244	-416.85	1413.5	-17.818	-485.09	1146.8	-27.637	-277.97	1339.1	-26.132	-216.55	1236.8	-24.435	-468.25	1317.5	86.113	-209.63	965.89	-151.18	-241.26	965.35	135.85	-470.12	963.05	-77.139	-476.85	960.32	12.66	-342.79	1372.8	130.5	-348.77	1190.3	224.61	-392.9	1068.7	252.57	-407.98	1038.9	158.61	-380.36	922.19	269.48	-305.04	826.13	227.62	-352.07	816.75	277.7	-287.5	773.58	275.99	-340.49	1369.6	-181.81	-359.79	1188	-273.53	-407.68	1066.2	-299.17	-439.55	1042.1	-225.88	-404.64	928.1	-314.42	-326.44	820.77	-273.64	-322.1	770.75	-313.94	-300.66	731.07	193.64	-286.31	561.32	169.05	-237.69	653.8	164.47	-293.78	644.89	179.62	-287.75	475.7	154.65	-338.78	323.71	97.76	-487.34	236.67	90.595	-429.51	305.57	145.9	-412.12	279.39	92.266	-606.66	202.76	111.48	-578.54	85.762	44.276	-609.43	97.254	107.73	-292.88	757	-236.28	-272.97	597.08	-177.39	-227.87	692.07	-188.92	-283.94	679.52	-202.74	-260.01	477.08	-139.07	-219.11	335.94	-55.316	-246.29	165.61	-52.186	-251.87	250.34	-110.75	-233.65	250.36	-52.244	-295.81	59.084	-75.665	-281.72	64.106	8.4183	-180.63	30.015	-8.3357	-210.8	23.587	-88.127	-111.61	24.966	-35.148	-585.71	195.56	30.748	-383.29	812.4	-318.39	-550.38	46.031	80.04	-359.5	30.898	-40.361	-663.76	238.78	69.146
